%TF.GenerationSoftware,KiCad,Pcbnew,8.0.1*%
%TF.CreationDate,2025-03-17T22:35:21+09:00*%
%TF.ProjectId,basic,62617369-632e-46b6-9963-61645f706362,rev?*%
%TF.SameCoordinates,PX8583b00PY6dac2c0*%
%TF.FileFunction,Copper,L1,Top*%
%TF.FilePolarity,Positive*%
%FSLAX46Y46*%
G04 Gerber Fmt 4.6, Leading zero omitted, Abs format (unit mm)*
G04 Created by KiCad (PCBNEW 8.0.1) date 2025-03-17 22:35:21*
%MOMM*%
%LPD*%
G01*
G04 APERTURE LIST*
G04 Aperture macros list*
%AMFreePoly0*
4,1,12,-0.063500,0.063500,0.000000,0.063500,0.024300,0.058666,0.044901,0.044901,0.058666,0.024300,0.063500,0.000000,0.058666,-0.024300,0.044901,-0.044901,0.024300,-0.058666,0.000000,-0.063500,-0.063500,-0.063500,-0.063500,0.063500,-0.063500,0.063500,$1*%
G04 Aperture macros list end*
%TA.AperFunction,EtchedComponent*%
%ADD10C,0.000000*%
%TD*%
%TA.AperFunction,SMDPad,CuDef*%
%ADD11FreePoly0,270.000000*%
%TD*%
%TA.AperFunction,SMDPad,CuDef*%
%ADD12FreePoly0,90.000000*%
%TD*%
%TA.AperFunction,ViaPad*%
%ADD13C,0.600000*%
%TD*%
%TA.AperFunction,Conductor*%
%ADD14C,0.400000*%
%TD*%
G04 APERTURE END LIST*
D10*
%TA.AperFunction,EtchedComponent*%
%TO.C,TP3*%
G36*
X7063500Y2536500D02*
G01*
X6936500Y2536500D01*
X6936500Y2662500D01*
X7063500Y2662500D01*
X7063500Y2536500D01*
G37*
%TD.AperFunction*%
%TA.AperFunction,EtchedComponent*%
%TO.C,TP1*%
G36*
X3063500Y11437500D02*
G01*
X2936500Y11437500D01*
X2936500Y11563500D01*
X3063500Y11563500D01*
X3063500Y11437500D01*
G37*
%TD.AperFunction*%
%TD*%
D11*
%TO.P,TP3,1,1*%
%TO.N,/MSL*%
X7000000Y2473000D03*
D12*
%TO.P,TP3,2,2*%
X7000000Y2726000D03*
%TD*%
%TO.P,TP1,1,1*%
%TO.N,/MSL*%
X3000000Y11627000D03*
D11*
%TO.P,TP1,2,2*%
X3000000Y11374000D03*
%TD*%
D13*
%TO.N,/MSL*%
X5000000Y6500000D03*
%TO.N,GND*%
X5000000Y9700000D03*
X3400000Y5000000D03*
%TD*%
D14*
%TO.N,/MSL*%
X6998156Y3802540D02*
X6998156Y2501844D01*
X3000000Y11627000D02*
X3000000Y9328427D01*
X6998156Y2501844D02*
X7000000Y2500000D01*
X3585787Y7914213D02*
X5000000Y6500000D01*
X5000000Y6500000D02*
X6414214Y5085786D01*
X6414214Y5085786D02*
G75*
G02*
X6998149Y3802540I-1430414J-1425386D01*
G01*
X3000000Y9328427D02*
G75*
G03*
X3585803Y7914229I2000100J73D01*
G01*
%TD*%
%TA.AperFunction,Conductor*%
%TO.N,GND*%
G36*
X8442539Y13479815D02*
G01*
X8488294Y13427011D01*
X8499500Y13375500D01*
X8499500Y624500D01*
X8479815Y557461D01*
X8427011Y511706D01*
X8375500Y500500D01*
X624500Y500500D01*
X557461Y520185D01*
X511706Y572989D01*
X500500Y624500D01*
X500500Y9379721D01*
X2599476Y9379721D01*
X2599481Y9193603D01*
X2629678Y8925681D01*
X2629681Y8925667D01*
X2689677Y8662835D01*
X2689679Y8662829D01*
X2778732Y8408344D01*
X2895717Y8165429D01*
X3039162Y7937139D01*
X3164572Y7779880D01*
X3207264Y7726345D01*
X3258233Y7675376D01*
X3258246Y7675361D01*
X4475369Y6458238D01*
X4508854Y6396915D01*
X4510426Y6388205D01*
X4514835Y6357543D01*
X4574623Y6226627D01*
X4668872Y6117857D01*
X4789947Y6040047D01*
X4789950Y6040046D01*
X4789949Y6040046D01*
X4906262Y6005894D01*
X4959009Y5974598D01*
X6127825Y4805783D01*
X6133023Y4800257D01*
X6253046Y4664567D01*
X6262133Y4652973D01*
X6363166Y4506973D01*
X6370815Y4494383D01*
X6453829Y4337416D01*
X6459929Y4324009D01*
X6523736Y4158327D01*
X6528205Y4144290D01*
X6571918Y3972194D01*
X6574689Y3957728D01*
X6596611Y3789900D01*
X6597656Y3773839D01*
X6597656Y2449118D01*
X6624949Y2347255D01*
X6626014Y2345411D01*
X6677676Y2255931D01*
X6754087Y2179520D01*
X6845412Y2126793D01*
X6947273Y2099500D01*
X6947275Y2099500D01*
X7052725Y2099500D01*
X7052727Y2099500D01*
X7154588Y2126793D01*
X7245913Y2179520D01*
X7320480Y2254087D01*
X7373207Y2345412D01*
X7400500Y2447273D01*
X7400500Y2552727D01*
X7400499Y2552730D01*
X7399716Y2558680D01*
X7398656Y2574862D01*
X7398656Y3745903D01*
X7401514Y3772372D01*
X7401715Y3773290D01*
X7398962Y3812304D01*
X7398656Y3821028D01*
X7398656Y3855266D01*
X7398011Y3857672D01*
X7394093Y3881018D01*
X7388938Y3953800D01*
X7388938Y3953801D01*
X7346628Y4196889D01*
X7346624Y4196904D01*
X7310869Y4324009D01*
X7279805Y4434437D01*
X7189173Y4663946D01*
X7189169Y4663956D01*
X7075672Y4883039D01*
X7075660Y4883059D01*
X6940475Y5089454D01*
X6940473Y5089456D01*
X6940467Y5089466D01*
X6888052Y5154051D01*
X6784981Y5281054D01*
X6784976Y5281059D01*
X6784972Y5281064D01*
X6740845Y5325371D01*
X6739613Y5326780D01*
X6697769Y5368623D01*
X6697614Y5368778D01*
X6651736Y5414817D01*
X6650510Y5415882D01*
X5524629Y6541764D01*
X5491144Y6603087D01*
X5489572Y6611802D01*
X5485165Y6642454D01*
X5485164Y6642460D01*
X5425377Y6773372D01*
X5425376Y6773374D01*
X5331128Y6882143D01*
X5296581Y6904345D01*
X5210051Y6959955D01*
X5093736Y6994107D01*
X5040990Y7025403D01*
X3871861Y8194532D01*
X3866314Y8200454D01*
X3736391Y8348604D01*
X3726517Y8361472D01*
X3695198Y8408344D01*
X3619302Y8521931D01*
X3611203Y8535958D01*
X3525842Y8709047D01*
X3519639Y8724022D01*
X3457602Y8906766D01*
X3453407Y8922424D01*
X3452762Y8925667D01*
X3415750Y9111712D01*
X3413637Y9127763D01*
X3400766Y9324052D01*
X3400500Y9332165D01*
X3400500Y11679725D01*
X3400500Y11679727D01*
X3373207Y11781587D01*
X3320480Y11872913D01*
X3245913Y11947480D01*
X3154587Y12000207D01*
X3052727Y12027500D01*
X2947273Y12027500D01*
X2845413Y12000207D01*
X2845410Y12000206D01*
X2754085Y11947479D01*
X2679521Y11872915D01*
X2626794Y11781590D01*
X2626793Y11781587D01*
X2599500Y11679727D01*
X2599500Y9394649D01*
X2599498Y9394619D01*
X2599498Y9379795D01*
X2599476Y9379721D01*
X500500Y9379721D01*
X500500Y13375500D01*
X520185Y13442539D01*
X572989Y13488294D01*
X624500Y13499500D01*
X8375500Y13499500D01*
X8442539Y13479815D01*
G37*
%TD.AperFunction*%
%TD*%
M02*
