%TF.GenerationSoftware,KiCad,Pcbnew,8.0.1*%
%TF.CreationDate,2025-03-17T22:35:21+09:00*%
%TF.ProjectId,basic,62617369-632e-46b6-9963-61645f706362,rev?*%
%TF.SameCoordinates,PX8583b00PY6dac2c0*%
%TF.FileFunction,Copper,L2,Bot*%
%TF.FilePolarity,Positive*%
%FSLAX46Y46*%
G04 Gerber Fmt 4.6, Leading zero omitted, Abs format (unit mm)*
G04 Created by KiCad (PCBNEW 8.0.1) date 2025-03-17 22:35:21*
%MOMM*%
%LPD*%
G01*
G04 APERTURE LIST*
G04 Aperture macros list*
%AMFreePoly0*
4,1,12,-0.063500,0.063500,0.000000,0.063500,0.024300,0.058666,0.044901,0.044901,0.058666,0.024300,0.063500,0.000000,0.058666,-0.024300,0.044901,-0.044901,0.024300,-0.058666,0.000000,-0.063500,-0.063500,-0.063500,-0.063500,0.063500,-0.063500,0.063500,$1*%
G04 Aperture macros list end*
%TA.AperFunction,EtchedComponent*%
%ADD10C,0.000000*%
%TD*%
%TA.AperFunction,SMDPad,CuDef*%
%ADD11FreePoly0,0.000000*%
%TD*%
%TA.AperFunction,SMDPad,CuDef*%
%ADD12FreePoly0,180.000000*%
%TD*%
%TA.AperFunction,ViaPad*%
%ADD13C,0.600000*%
%TD*%
%TA.AperFunction,Conductor*%
%ADD14C,0.400000*%
%TD*%
G04 APERTURE END LIST*
D10*
%TA.AperFunction,EtchedComponent*%
%TO.C,TP4*%
G36*
X1063500Y1436500D02*
G01*
X937500Y1436500D01*
X937500Y1563500D01*
X1063500Y1563500D01*
X1063500Y1436500D01*
G37*
%TD.AperFunction*%
%TA.AperFunction,EtchedComponent*%
%TO.C,TP2*%
G36*
X1063500Y936500D02*
G01*
X937500Y936500D01*
X937500Y1063500D01*
X1063500Y1063500D01*
X1063500Y936500D01*
G37*
%TD.AperFunction*%
%TD*%
D11*
%TO.P,TP4,1,1*%
%TO.N,GND*%
X1127000Y1500000D03*
D12*
%TO.P,TP4,2,2*%
X874000Y1500000D03*
%TD*%
D11*
%TO.P,TP2,1,1*%
%TO.N,GND*%
X1127000Y1000000D03*
D12*
%TO.P,TP2,2,2*%
X874000Y1000000D03*
%TD*%
D13*
%TO.N,/MSL*%
X5000000Y6500000D03*
%TO.N,GND*%
X5000000Y9700000D03*
X3400000Y5000000D03*
%TD*%
D14*
%TO.N,/MSL*%
X5000000Y6500000D02*
X5914214Y7414214D01*
X6500000Y8828427D02*
X6500000Y11500000D01*
X5914214Y7414214D02*
G75*
G03*
X6500022Y8828427I-1414314J1414286D01*
G01*
%TD*%
%TA.AperFunction,Conductor*%
%TO.N,GND*%
G36*
X8458691Y13480593D02*
G01*
X8494655Y13431093D01*
X8499500Y13400500D01*
X8499500Y599500D01*
X8480593Y541309D01*
X8431093Y505345D01*
X8400500Y500500D01*
X599500Y500500D01*
X541309Y519407D01*
X505345Y568907D01*
X500500Y599500D01*
X500500Y6499998D01*
X4494353Y6499998D01*
X4514834Y6357544D01*
X4514835Y6357542D01*
X4574623Y6226627D01*
X4668872Y6117857D01*
X4668873Y6117856D01*
X4789942Y6040050D01*
X4789947Y6040047D01*
X4896403Y6008789D01*
X4928035Y5999501D01*
X4928036Y5999501D01*
X4928039Y5999500D01*
X4928041Y5999500D01*
X5071959Y5999500D01*
X5071961Y5999500D01*
X5210053Y6040047D01*
X5331128Y6117857D01*
X5425377Y6226627D01*
X5485165Y6357543D01*
X5490756Y6396438D01*
X5517749Y6451343D01*
X5518675Y6452284D01*
X6234694Y7168301D01*
X6234696Y7168306D01*
X6239321Y7172930D01*
X6239533Y7173174D01*
X6292720Y7226359D01*
X6460821Y7437152D01*
X6604265Y7665440D01*
X6721248Y7908353D01*
X6810300Y8162835D01*
X6870301Y8425688D01*
X6900496Y8693606D01*
X6900497Y8766250D01*
X6900500Y8766267D01*
X6900500Y8828442D01*
X6900500Y8831688D01*
X6900502Y8885996D01*
X6900500Y8886000D01*
X6900501Y8892877D01*
X6900500Y8892907D01*
X6900500Y11552726D01*
X6900500Y11552727D01*
X6873207Y11654587D01*
X6820480Y11745913D01*
X6745913Y11820480D01*
X6654587Y11873207D01*
X6552727Y11900500D01*
X6447273Y11900500D01*
X6345413Y11873207D01*
X6345412Y11873207D01*
X6345410Y11873206D01*
X6345409Y11873206D01*
X6254089Y11820482D01*
X6179518Y11745911D01*
X6126794Y11654591D01*
X6126794Y11654590D01*
X6099500Y11552726D01*
X6099500Y8831688D01*
X6099288Y8825210D01*
X6086233Y8626136D01*
X6084542Y8613298D01*
X6046253Y8420831D01*
X6042902Y8408323D01*
X5979814Y8222480D01*
X5974858Y8210516D01*
X5888060Y8034512D01*
X5881585Y8023298D01*
X5772556Y7860127D01*
X5764674Y7849855D01*
X5632930Y7699626D01*
X5628501Y7694896D01*
X4954496Y7020890D01*
X4912384Y6995904D01*
X4789947Y6959953D01*
X4789942Y6959951D01*
X4668873Y6882145D01*
X4574622Y6773372D01*
X4514834Y6642457D01*
X4494353Y6500003D01*
X4494353Y6499998D01*
X500500Y6499998D01*
X500500Y13400500D01*
X519407Y13458691D01*
X568907Y13494655D01*
X599500Y13499500D01*
X8400500Y13499500D01*
X8458691Y13480593D01*
G37*
%TD.AperFunction*%
%TD*%
M02*
